<svg xmlns="http://www.w3.org/2000/svg" viewBox="0 0 64 64" role="img" aria-label="TireDrop">
  <!--
    A browser tab gives this 16 pixels. Neither the wordmark nor the lightning
    survives that, so the favicon carries the one element of the badge that
    still reads at thumbnail size: the tire, head on, with the mark's cyan
    behind it. Colours are the sampled brand palette — the previous icon was a
    water drop in the pre-rebrand navy and blue.
  -->
  <rect width="64" height="64" rx="14" fill="#070E1A"/>
  <circle cx="32" cy="32" r="23" fill="none" stroke="#00B4FC" stroke-width="2" opacity=".35"/>
  <circle cx="32" cy="32" r="20" fill="#1C2025"/>
  <circle cx="32" cy="32" r="20" fill="none" stroke="#3A4149" stroke-width="2"/>
  <g fill="#5A6472">
    <rect x="30.4" y="12.6" width="3.2" height="6" rx="1.2"/>
    <rect x="30.4" y="12.6" width="3.2" height="6" rx="1.2" transform="rotate(45 32 32)"/>
    <rect x="30.4" y="12.6" width="3.2" height="6" rx="1.2" transform="rotate(90 32 32)"/>
    <rect x="30.4" y="12.6" width="3.2" height="6" rx="1.2" transform="rotate(135 32 32)"/>
    <rect x="30.4" y="12.6" width="3.2" height="6" rx="1.2" transform="rotate(180 32 32)"/>
    <rect x="30.4" y="12.6" width="3.2" height="6" rx="1.2" transform="rotate(225 32 32)"/>
    <rect x="30.4" y="12.6" width="3.2" height="6" rx="1.2" transform="rotate(270 32 32)"/>
    <rect x="30.4" y="12.6" width="3.2" height="6" rx="1.2" transform="rotate(315 32 32)"/>
  </g>
  <circle cx="32" cy="32" r="9.5" fill="#070E1A"/>
  <circle cx="32" cy="32" r="9.5" fill="none" stroke="#00B4FC" stroke-width="2.4"/>
</svg>
